<svg data-v-423bf9ae="" xmlns="http://www.w3.org/2000/svg" viewBox="0 0 528 90" class="iconLeftSlogan"><!----><!----><!----><g data-v-423bf9ae="" id="695737f1-fee2-49d2-9441-8aec3c8f91fd" fill="white" transform="matrix(6.054490506946714,0,0,6.054490506946714,109.39909917828908,-18.64783029947491)"><path d="M0.59 7.91C0.59 11.40 2.95 12.89 5.54 12.89C7.43 12.89 9.44 11.89 9.44 11.58C9.44 11.12 9.45 10.68 9.45 10.33C9.45 9.81 9.46 9.56 9.59 9.56L10.02 9.56C10.16 9.56 10.18 9.39 10.18 9.30C10.18 9.18 10.16 9.06 10.02 9.06C9.80 9.06 9.44 9.10 8.76 9.10C8.32 9.10 7.57 9.07 6.89 9.06C6.75 9.06 6.75 9.24 6.75 9.35C6.75 9.45 6.78 9.56 6.90 9.56L8.12 9.56C8.16 9.56 8.22 9.87 8.22 10.33C8.22 10.82 8.20 11.41 8.18 11.65C8.16 11.76 7.52 12.39 5.94 12.39C3.70 12.39 2.10 10.29 2.10 7.94C2.10 5.42 3.65 3.54 5.66 3.54C7.55 3.54 8.72 4.87 8.72 5.03C8.72 5.15 8.67 6.12 8.67 6.17C8.67 6.31 8.71 6.36 8.97 6.36C9.17 6.36 9.24 6.33 9.24 6.15C9.24 5.43 9.28 3.75 9.28 3.56C9.28 3.36 9.18 3.33 8.97 3.33C8.75 3.33 8.72 3.39 8.72 3.56L8.72 3.91C8.72 3.99 8.68 4.02 8.55 3.92C8.27 3.72 7.28 3.08 5.71 3.08C2.87 3.08 0.59 4.79 0.59 7.91ZM10.85 7.60C10.85 7.66 10.89 7.67 10.96 7.67C11.02 7.67 11.61 7.66 11.65 7.66C11.75 7.66 11.77 8.05 11.77 8.69L11.77 10.89C11.77 11.83 11.98 12.80 13.34 12.80C14.38 12.80 15.57 12.15 15.60 12.15C15.64 12.15 15.61 12.87 15.69 12.87C15.75 12.87 16.88 12.70 17.36 12.63C17.54 12.60 17.54 12.59 17.54 12.38C17.54 12.29 17.54 12.19 17.46 12.19C17.42 12.19 16.87 12.28 16.84 12.28C16.66 12.28 16.62 12.19 16.62 11.49C16.62 10.63 16.63 7.28 16.63 7.28C16.63 7.20 16.65 7.15 16.49 7.15C16.42 7.15 15.58 7.20 14.87 7.22C14.74 7.22 14.70 7.25 14.69 7.35C14.67 7.39 14.66 7.56 14.66 7.60C14.66 7.64 14.71 7.64 14.77 7.64C14.81 7.64 15.36 7.62 15.47 7.62C15.55 7.62 15.58 9.87 15.58 10.18L15.58 11.83C15.58 11.93 14.83 12.01 14.35 12.01C13.52 12.01 12.84 11.86 12.84 11.12L12.84 7.31C12.84 7.22 12.84 7.18 12.75 7.18C12.68 7.18 11.47 7.22 11.16 7.24C10.99 7.25 10.95 7.24 10.91 7.36C10.88 7.43 10.85 7.55 10.85 7.60ZM18.28 11.61C18.28 12.35 18.82 12.84 19.70 12.84C20.31 12.84 21.03 12.45 21.43 12.19C21.53 12.14 21.55 12.11 21.59 12.24C21.67 12.46 21.73 12.88 22.18 12.88C22.27 12.88 22.51 12.74 22.76 12.56C23.10 12.31 23.48 12.04 23.48 12.01C23.48 11.93 23.32 11.73 23.25 11.73C23.23 11.73 22.81 12.08 22.69 12.08C22.65 12.08 22.44 12.01 22.44 11.70C22.44 11.40 22.53 9.56 22.53 8.85C22.53 7.73 22.09 6.97 20.65 6.97C19.73 6.97 18.48 7.67 18.48 8.85C18.48 9.00 18.54 9.11 18.61 9.11C18.68 9.11 19.18 8.86 19.42 8.69C19.50 8.64 19.52 8.50 19.52 8.41C19.52 7.84 19.54 7.63 19.92 7.48C20.05 7.42 20.22 7.39 20.36 7.39C21.52 7.39 21.53 8.32 21.53 9.31C21.53 9.44 21.53 9.48 21.46 9.49C20.08 9.73 18.28 10.32 18.28 11.61ZM19.35 11.21C19.35 10.58 19.98 10.22 20.64 10.01C21.03 9.88 21.45 9.80 21.49 9.80C21.52 9.80 21.53 9.81 21.53 9.91L21.53 11.75C21.53 11.84 20.75 12.14 20.22 12.14C19.66 12.14 19.35 11.65 19.35 11.21ZM23.73 7.45C23.73 7.59 23.74 7.67 23.91 7.67L24.16 7.67C24.29 7.67 24.28 7.69 24.35 7.85C24.91 9.31 25.72 11.56 25.87 12.04C25.96 12.31 26.10 12.99 26.33 12.99C26.39 12.99 26.46 12.95 26.52 12.88C26.88 12.33 26.99 12.36 27.22 11.89C27.85 10.57 28.67 8.37 28.98 7.81C29.05 7.70 29.05 7.67 29.13 7.67L29.40 7.67C29.54 7.67 29.57 7.59 29.57 7.45C29.57 7.29 29.55 7.21 29.41 7.21C29.20 7.21 28.97 7.24 28.66 7.24C28.38 7.24 27.93 7.21 27.82 7.21C27.62 7.21 27.62 7.31 27.62 7.45C27.62 7.59 27.62 7.67 27.80 7.67L28.21 7.67C28.27 7.67 28.31 7.71 28.31 7.85C28.31 8.29 27.33 10.64 26.99 11.44C26.95 11.55 26.92 11.59 26.89 11.59C26.87 11.59 26.84 11.52 26.78 11.41C26.38 10.50 25.49 7.88 25.47 7.74C25.47 7.70 25.52 7.67 25.68 7.67L26.17 7.67C26.29 7.67 26.31 7.59 26.31 7.45C26.31 7.29 26.31 7.21 26.15 7.21C25.90 7.21 25.24 7.24 24.89 7.24C24.49 7.24 24.18 7.21 23.91 7.21C23.74 7.21 23.73 7.32 23.73 7.45ZM30.18 11.61C30.18 12.35 30.72 12.84 31.60 12.84C32.21 12.84 32.93 12.45 33.33 12.19C33.43 12.14 33.45 12.11 33.49 12.24C33.57 12.46 33.63 12.88 34.08 12.88C34.17 12.88 34.41 12.74 34.66 12.56C35 12.31 35.38 12.04 35.38 12.01C35.38 11.93 35.22 11.73 35.15 11.73C35.13 11.73 34.71 12.08 34.59 12.08C34.55 12.08 34.34 12.01 34.34 11.70C34.34 11.40 34.43 9.56 34.43 8.85C34.43 7.73 33.99 6.97 32.55 6.97C31.63 6.97 30.38 7.67 30.38 8.85C30.38 9.00 30.44 9.11 30.51 9.11C30.58 9.11 31.08 8.86 31.32 8.69C31.40 8.64 31.42 8.50 31.42 8.41C31.42 7.84 31.44 7.63 31.82 7.48C31.95 7.42 32.12 7.39 32.26 7.39C33.42 7.39 33.43 8.32 33.43 9.31C33.43 9.44 33.43 9.48 33.36 9.49C31.98 9.73 30.18 10.32 30.18 11.61ZM31.25 11.21C31.25 10.58 31.88 10.22 32.54 10.01C32.93 9.88 33.35 9.80 33.39 9.80C33.42 9.80 33.43 9.81 33.43 9.91L33.43 11.75C33.43 11.84 32.65 12.14 32.12 12.14C31.56 12.14 31.25 11.65 31.25 11.21ZM36.19 7.91C36.19 11.40 38.56 12.89 41.15 12.89C43.04 12.89 45.04 11.89 45.04 11.58C45.04 11.12 45.05 10.68 45.05 10.33C45.05 9.81 45.07 9.56 45.19 9.56L45.63 9.56C45.77 9.56 45.78 9.39 45.78 9.30C45.78 9.18 45.77 9.06 45.63 9.06C45.40 9.06 45.04 9.10 44.37 9.10C43.92 9.10 43.18 9.07 42.49 9.06C42.35 9.06 42.35 9.24 42.35 9.35C42.35 9.45 42.38 9.56 42.50 9.56L43.72 9.56C43.76 9.56 43.82 9.87 43.82 10.33C43.82 10.82 43.81 11.41 43.78 11.65C43.76 11.76 43.12 12.39 41.54 12.39C39.30 12.39 37.70 10.29 37.70 7.94C37.70 5.42 39.26 3.54 41.26 3.54C43.15 3.54 44.32 4.87 44.32 5.03C44.32 5.15 44.27 6.12 44.27 6.17C44.27 6.31 44.31 6.36 44.58 6.36C44.77 6.36 44.84 6.33 44.84 6.15C44.84 5.43 44.88 3.75 44.88 3.56C44.88 3.36 44.79 3.33 44.58 3.33C44.35 3.33 44.32 3.39 44.32 3.56L44.32 3.91C44.32 3.99 44.28 4.02 44.16 3.92C43.88 3.72 42.88 3.08 41.31 3.08C38.47 3.08 36.19 4.79 36.19 7.91ZM46.68 10.04C46.68 11.58 47.84 12.85 49.36 12.85C51.13 12.85 52.16 11.58 52.16 9.84C52.16 8.29 51.14 7.01 49.59 7.01C47.84 7.01 46.68 8.37 46.68 10.04ZM47.75 10.23C47.75 8.69 48.15 7.46 49.42 7.46C50.55 7.46 51.07 8.74 51.07 9.74C51.07 10.92 50.83 12.40 49.36 12.40C48.31 12.40 47.75 11.27 47.75 10.23ZM52.92 10.04C52.92 11.58 54.08 12.85 55.61 12.85C57.37 12.85 58.41 11.58 58.41 9.84C58.41 8.29 57.39 7.01 55.83 7.01C54.08 7.01 52.92 8.37 52.92 10.04ZM54.00 10.23C54.00 8.69 54.39 7.46 55.66 7.46C56.80 7.46 57.32 8.74 57.32 9.74C57.32 10.92 57.08 12.40 55.61 12.40C54.56 12.40 54.00 11.27 54.00 10.23ZM59.23 11.90C59.23 12.39 60.19 12.81 61.04 12.81C62.09 12.81 63.06 12.17 63.06 11.12C63.06 10.25 62.09 9.83 61.29 9.45C60.69 9.16 60.17 8.95 60.17 8.37C60.17 7.67 60.70 7.43 61.15 7.43C62.03 7.43 61.85 8.34 62.20 8.34C62.38 8.34 62.83 8.23 62.83 8.06C62.83 7.67 62.41 7.06 61.33 7.06C60.33 7.06 59.28 7.71 59.28 8.68C59.28 9.62 60.17 10.00 60.93 10.33C61.59 10.61 62.15 10.91 62.15 11.54C62.15 12.14 61.73 12.40 61.26 12.40C60.65 12.40 60.28 12.08 59.99 11.72C59.85 11.54 59.79 11.31 59.70 11.31C59.60 11.31 59.23 11.62 59.23 11.90ZM63.90 10.01C63.90 11.68 64.86 12.85 66.63 12.85C68.08 12.85 69.08 11.56 69.08 11.48C69.08 11.45 68.84 11.24 68.80 11.24C68.71 11.24 68.12 12.15 66.95 12.15C65.94 12.15 64.95 11.33 64.95 9.88C64.95 9.72 64.96 9.49 64.99 9.42C65.20 9.42 67.96 9.49 68.11 9.49C68.25 9.49 68.91 9.46 68.91 9.28C68.91 8.09 68.19 7.01 66.78 7.01C65.07 7.01 63.90 8.33 63.90 10.01ZM65.02 9.03C65.07 8.34 65.72 7.41 66.61 7.41C67.05 7.41 67.86 7.70 67.86 8.99C67.86 9.04 67.69 9.03 67.34 9.04C66.64 9.07 65.21 9.10 65.14 9.10C65.03 9.10 65.02 9.09 65.02 9.03Z"></path></g><!----><g data-v-423bf9ae="" id="d32f5291-9cb4-435d-9783-3cd5f22becd1" transform="matrix(1.0329987461958103,0,0,1.0329987461958103,-3.6207078826205006,-5.175355813615319)" stroke="none" fill="white"><path d="M81.43 59.252c-3.19 5.703-12.85 11.711-28.547 11.284-.175 3.419-1.145 6.293-2.49 7.668v13.064c0 .491-.567.885-1.256.885-.382 0-2.261-.087-3.398-.087-3.572 0-9.34-.798-9.34-1.77 0-.983 5.767-1.77 9.34-1.77.928 0 1.616.054 2.131.153v-9.754c-1.99-.776-3.016-8.936-3.562-9.24-10.126-5.66-16.566-7.504-20.979-13.71 0-.01-.011-.01-.011-.01-3.998-4.741-4.577-7.504-4.032-10.782 1.398-8.367 7.056-27.232 2.764-30.979-.426-.382-1.169.121-1.769.121-2.371 0-4.49-.612-5.91-1.573l-4.643-.546s-6.794-.644-5.461-.918c2.677-.556 5.243-1.344 5.243-1.344l3.124-.983c.7-2.074 3.857-3.647 7.647-3.647 3.353 0 5.764 1.249 7.197 2.698 3.551 3.583.547 26.522.547 26.795 0 2.333 2.828 5.189 4.817 5.189.708 0 2.009-.394 2.009-.361a46.36 46.36 0 0 1 6.314-1.386c4.456-.689 10.503-.164 12.529.349 6.387 1.618 11.585 4.451 17.75 8.236 9.563 5.872 14.833 9.503 18.438 14.037 1.826 2.292-2.04.98-8.452-1.619z"></path><path d="M57.974 72.741c-.35 2.429-1.084 4.504-2.112 6v8.833c-.054-.011-.117-.019-.175-.03v3.255c.231-.04 1.117.084 1.439.084.696 0 1.261-.392 1.261-.875L58.319 78.5c.272-.546 2.621-3.174 3.229-5.893a62.21 62.21 0 0 1-3.574.134zM87.989 75.999c-1.991 0-3.598 1.71-4.659 3.926-.977-2.001-2.442-3.541-4.265-3.541-1.747 0-3.166 1.409-4.152 3.297-1.061-2.104-2.621-3.682-4.537-3.682-3.729 0-6.106 5.984-6.106 10.098 0 4.03 2.226 6.341 6.106 6.341 2.198 0 3.87-.742 4.903-2.132.939.78 2.217 1.193 3.786 1.193 1.653 0 2.978-.46 3.936-1.324 1.005 1.475 2.715 2.264 4.988 2.264 3.879 0 6.106-2.311 6.106-6.341-.001-4.116-2.377-10.099-6.106-10.099zM74.058 88.745c-.639 1.212-1.86 1.813-3.682 1.813-2.846 0-4.227-1.456-4.227-4.462 0-3.917 2.207-8.219 4.227-8.219 1.343 0 2.762 1.888 3.56 4.312.413 1.231.667 2.593.667 3.908 0 1.08-.179 1.963-.545 2.648zm8.097-.441c-.611.883-1.634 1.315-3.09 1.315-1.324 0-2.292-.357-2.912-1.09.216-.723.329-1.531.329-2.433 0-1.202-.197-2.564-.592-3.889.723-2.189 2.001-3.945 3.175-3.945 1.24 0 2.602 1.963 3.297 4.34a13.883 13.883 0 0 0-.479 3.494c0 .808.084 1.541.272 2.208zm5.834 2.254c-1.944 0-3.203-.676-3.804-2.067-.282-.639-.423-1.437-.423-2.395 0-1.184.197-2.395.535-3.523.78-2.602 2.283-4.697 3.692-4.697 2.02 0 4.227 4.302 4.227 8.219 0 3.007-1.381 4.463-4.227 4.463z"></path></g><!----><g data-v-423bf9ae="" id="d519783d-8983-4c26-beb5-46d043f4959f" fill="white" transform="matrix(0.7257282906665525,0,0,0.7257282906665525,112.33985867144031,57.35834856672467)"><path d="M5.01 8.50L8.81 8.50L8.81 13.02L8.25 13.02L8.22 11.41L8.22 11.41Q7.84 12.25 7.04 12.71L7.04 12.71L7.04 12.71Q6.23 13.16 5.04 13.16L5.04 13.16L5.04 13.16Q3.78 13.16 2.83 12.58L2.83 12.58L2.83 12.58Q1.89 12.00 1.38 10.92L1.38 10.92L1.38 10.92Q0.87 9.84 0.87 8.40L0.87 8.40L0.87 8.40Q0.87 6.96 1.39 5.88L1.39 5.88L1.39 5.88Q1.92 4.80 2.87 4.22L2.87 4.22L2.87 4.22Q3.82 3.64 5.08 3.64L5.08 3.64L5.08 3.64Q6.50 3.64 7.39 4.20L7.39 4.20L7.39 4.20Q8.29 4.76 8.74 5.91L8.74 5.91L8.09 6.24L8.09 6.24Q7.77 5.28 7.01 4.78L7.01 4.78L7.01 4.78Q6.24 4.28 5.08 4.28L5.08 4.28L5.08 4.28Q4.05 4.28 3.26 4.78L3.26 4.78L3.26 4.78Q2.48 5.28 2.04 6.21L2.04 6.21L2.04 6.21Q1.61 7.14 1.61 8.40L1.61 8.40L1.61 8.40Q1.61 10.32 2.53 11.42L2.53 11.42L2.53 11.42Q3.44 12.52 5.07 12.52L5.07 12.52L5.07 12.52Q6.08 12.52 6.78 12.12L6.78 12.12L6.78 12.12Q7.48 11.72 7.81 11.07L7.81 11.07L7.81 11.07Q8.15 10.42 8.15 9.67L8.15 9.67L8.15 9.16L5.01 9.16L5.01 8.50ZM18.98 12.38L24.82 12.38L24.82 13.02L18.28 13.02L18.28 3.78L24.60 3.78L24.60 4.42L18.98 4.42L18.98 7.99L23.42 7.99L23.42 8.65L18.98 8.65L18.98 12.38ZM40.15 3.78L40.15 4.42L36.78 4.42L36.78 13.02L36.08 13.02L36.08 4.42L32.70 4.42L32.70 3.78L40.15 3.78ZM65.38 3.78L62.10 9.42L62.10 13.02L61.40 13.02L61.40 9.42L58.13 3.78L58.95 3.78L61.75 8.69L64.55 3.78L65.38 3.78ZM77.35 3.64L77.35 3.64Q78.65 3.64 79.61 4.22L79.61 4.22L79.61 4.22Q80.57 4.80 81.09 5.87L81.09 5.87L81.09 5.87Q81.61 6.94 81.61 8.40L81.61 8.40L81.61 8.40Q81.61 9.86 81.09 10.93L81.09 10.93L81.09 10.93Q80.57 12.00 79.61 12.58L79.61 12.58L79.61 12.58Q78.65 13.16 77.35 13.16L77.35 13.16L77.35 13.16Q76.05 13.16 75.09 12.58L75.09 12.58L75.09 12.58Q74.13 12.00 73.61 10.93L73.61 10.93L73.61 10.93Q73.09 9.86 73.09 8.40L73.09 8.40L73.09 8.40Q73.09 6.94 73.61 5.87L73.61 5.87L73.61 5.87Q74.13 4.80 75.09 4.22L75.09 4.22L75.09 4.22Q76.05 3.64 77.35 3.64L77.35 3.64ZM77.35 4.28L77.35 4.28Q76.27 4.28 75.48 4.78L75.48 4.78L75.48 4.78Q74.69 5.28 74.26 6.21L74.26 6.21L74.26 6.21Q73.84 7.14 73.84 8.40L73.84 8.40L73.84 8.40Q73.84 9.66 74.26 10.59L74.26 10.59L74.26 10.59Q74.69 11.52 75.48 12.02L75.48 12.02L75.48 12.02Q76.27 12.52 77.35 12.52L77.35 12.52L77.35 12.52Q78.43 12.52 79.23 12.02L79.23 12.02L79.23 12.02Q80.02 11.52 80.45 10.59L80.45 10.59L80.45 10.59Q80.88 9.66 80.88 8.40L80.88 8.40L80.88 8.40Q80.88 7.14 80.45 6.21L80.45 6.21L80.45 6.21Q80.02 5.28 79.23 4.78L79.23 4.78L79.23 4.78Q78.43 4.28 77.35 4.28L77.35 4.28ZM97.94 3.78L97.94 9.65L97.94 9.65Q97.94 11.35 97.02 12.26L97.02 12.26L97.02 12.26Q96.10 13.16 94.39 13.16L94.39 13.16L94.39 13.16Q92.68 13.16 91.75 12.26L91.75 12.26L91.75 12.26Q90.82 11.35 90.82 9.65L90.82 9.65L90.82 3.78L91.52 3.78L91.52 9.51L91.52 9.51Q91.52 10.99 92.25 11.75L92.25 11.75L92.25 11.75Q92.97 12.52 94.39 12.52L94.39 12.52L94.39 12.52Q95.79 12.52 96.52 11.75L96.52 11.75L96.52 11.75Q97.24 10.99 97.24 9.51L97.24 9.51L97.24 3.78L97.94 3.78ZM114.69 13.02L113.86 13.02L111.22 9.02L111.17 9.02L108.44 9.02L108.44 13.02L107.74 13.02L107.74 3.78L111.17 3.78L111.17 3.78Q112.56 3.78 113.38 4.48L113.38 4.48L113.38 4.48Q114.20 5.18 114.20 6.40L114.20 6.40L114.20 6.40Q114.20 7.41 113.61 8.07L113.61 8.07L113.61 8.07Q113.02 8.74 112.00 8.93L112.00 8.93L114.69 13.02ZM108.44 4.42L108.44 8.36L111.16 8.36L111.16 8.36Q112.28 8.36 112.88 7.85L112.88 7.85L112.88 7.85Q113.47 7.35 113.47 6.40L113.47 6.40L113.47 6.40Q113.47 5.45 112.88 4.93L112.88 4.93L112.88 4.93Q112.28 4.42 111.16 4.42L111.16 4.42L108.44 4.42ZM139.75 3.78L139.75 9.97L139.75 9.97Q139.75 11.47 138.98 12.31L138.98 12.31L138.98 12.31Q138.21 13.16 136.81 13.16L136.81 13.16L136.81 13.16Q135.53 13.16 134.83 12.51L134.83 12.51L134.83 12.51Q134.13 11.86 134.13 10.74L134.13 10.74L134.13 10.74Q134.13 10.37 134.19 10.08L134.19 10.08L134.85 9.93L134.85 9.93Q134.81 10.26 134.81 10.57L134.81 10.57L134.81 10.57Q134.81 12.52 136.79 12.52L136.79 12.52L136.79 12.52Q137.97 12.52 138.51 11.83L138.51 11.83L138.51 11.83Q139.05 11.14 139.05 9.81L139.05 9.81L139.05 3.78L139.75 3.78ZM156.58 3.78L156.58 9.65L156.58 9.65Q156.58 11.35 155.65 12.26L155.65 12.26L155.65 12.26Q154.73 13.16 153.02 13.16L153.02 13.16L153.02 13.16Q151.31 13.16 150.38 12.26L150.38 12.26L150.38 12.26Q149.45 11.35 149.45 9.65L149.45 9.65L149.45 3.78L150.15 3.78L150.15 9.51L150.15 9.51Q150.15 10.99 150.88 11.75L150.88 11.75L150.88 11.75Q151.61 12.52 153.02 12.52L153.02 12.52L153.02 12.52Q154.42 12.52 155.15 11.75L155.15 11.75L155.15 11.75Q155.88 10.99 155.88 9.51L155.88 9.51L155.88 3.78L156.58 3.78ZM167.08 3.78L167.08 13.02L166.38 13.02L166.38 3.78L167.08 3.78ZM184.30 10.68L184.30 10.68Q183.90 11.86 182.93 12.51L182.93 12.51L182.93 12.51Q181.96 13.16 180.60 13.16L180.60 13.16L180.60 13.16Q179.34 13.16 178.39 12.58L178.39 12.58L178.39 12.58Q177.44 12.00 176.92 10.92L176.92 10.92L176.92 10.92Q176.40 9.84 176.40 8.40L176.40 8.40L176.40 8.40Q176.40 6.96 176.92 5.88L176.92 5.88L176.92 5.88Q177.44 4.80 178.39 4.22L178.39 4.22L178.39 4.22Q179.34 3.64 180.59 3.64L180.59 3.64L180.59 3.64Q183.36 3.64 184.17 5.92L184.17 5.92L183.48 6.24L183.48 6.24Q183.16 5.26 182.46 4.77L182.46 4.77L182.46 4.77Q181.75 4.28 180.63 4.28L180.63 4.28L180.63 4.28Q179.59 4.28 178.80 4.78L178.80 4.78L178.80 4.78Q178.01 5.28 177.58 6.21L177.58 6.21L177.58 6.21Q177.14 7.14 177.14 8.40L177.14 8.40L177.14 8.40Q177.14 9.66 177.57 10.59L177.57 10.59L177.57 10.59Q178.00 11.52 178.77 12.02L178.77 12.02L178.77 12.02Q179.55 12.52 180.60 12.52L180.60 12.52L180.60 12.52Q181.72 12.52 182.50 11.97L182.50 11.97L182.50 11.97Q183.29 11.42 183.60 10.42L183.60 10.42L184.30 10.68ZM194.05 12.38L199.89 12.38L199.89 13.02L193.35 13.02L193.35 3.78L199.67 3.78L199.67 4.42L194.05 4.42L194.05 7.99L198.49 7.99L198.49 8.65L194.05 8.65L194.05 12.38ZM224.88 6.54L223.02 13.02L222.15 13.02L219.27 3.78L220.02 3.78L222.59 12.45L225.01 3.78L225.82 3.78L228.24 12.46L230.83 3.78L231.55 3.78L228.66 13.02L227.79 13.02L225.93 6.54L225.41 4.54L225.40 4.54L224.88 6.54ZM241.12 3.78L241.12 13.02L240.42 13.02L240.42 3.78L241.12 3.78ZM257.33 3.78L257.33 4.42L253.96 4.42L253.96 13.02L253.26 13.02L253.26 4.42L249.89 4.42L249.89 3.78L257.33 3.78ZM272.51 3.78L273.21 3.78L273.21 13.02L272.51 13.02L272.51 8.65L266.80 8.65L266.80 13.02L266.10 13.02L266.10 3.78L266.80 3.78L266.80 7.99L272.51 7.99L272.51 3.78ZM298.06 8.50L301.85 8.50L301.85 13.02L301.29 13.02L301.27 11.41L301.27 11.41Q300.89 12.25 300.08 12.71L300.08 12.71L300.08 12.71Q299.28 13.16 298.09 13.16L298.09 13.16L298.09 13.16Q296.83 13.16 295.88 12.58L295.88 12.58L295.88 12.58Q294.94 12.00 294.43 10.92L294.43 10.92L294.43 10.92Q293.92 9.84 293.92 8.40L293.92 8.40L293.92 8.40Q293.92 6.96 294.44 5.88L294.44 5.88L294.44 5.88Q294.97 4.80 295.92 4.22L295.92 4.22L295.92 4.22Q296.87 3.64 298.13 3.64L298.13 3.64L298.13 3.64Q299.54 3.64 300.44 4.20L300.44 4.20L300.44 4.20Q301.34 4.76 301.78 5.91L301.78 5.91L301.14 6.24L301.14 6.24Q300.82 5.28 300.06 4.78L300.06 4.78L300.06 4.78Q299.29 4.28 298.13 4.28L298.13 4.28L298.13 4.28Q297.09 4.28 296.31 4.78L296.31 4.78L296.31 4.78Q295.53 5.28 295.09 6.21L295.09 6.21L295.09 6.21Q294.66 7.14 294.66 8.40L294.66 8.40L294.66 8.40Q294.66 10.32 295.58 11.42L295.58 11.42L295.58 11.42Q296.49 12.52 298.12 12.52L298.12 12.52L298.12 12.52Q299.12 12.52 299.82 12.12L299.82 12.12L299.82 12.12Q300.52 11.72 300.86 11.07L300.86 11.07L300.86 11.07Q301.20 10.42 301.20 9.67L301.20 9.67L301.20 9.16L298.06 9.16L298.06 8.50ZM318.35 3.78L318.35 9.65L318.35 9.65Q318.35 11.35 317.42 12.26L317.42 12.26L317.42 12.26Q316.50 13.16 314.79 13.16L314.79 13.16L314.79 13.16Q313.08 13.16 312.15 12.26L312.15 12.26L312.15 12.26Q311.22 11.35 311.22 9.65L311.22 9.65L311.22 3.78L311.92 3.78L311.92 9.51L311.92 9.51Q311.92 10.99 312.65 11.75L312.65 11.75L312.65 11.75Q313.38 12.52 314.79 12.52L314.79 12.52L314.79 12.52Q316.19 12.52 316.92 11.75L316.92 11.75L316.92 11.75Q317.65 10.99 317.65 9.51L317.65 9.51L317.65 3.78L318.35 3.78ZM334.18 13.02L333.02 10.12L328.59 10.12L327.45 13.02L326.70 13.02L330.40 3.78L331.23 3.78L334.92 13.02L334.18 13.02ZM328.86 9.48L332.77 9.48L331.16 5.45L330.82 4.47L330.81 4.47L330.47 5.42L328.86 9.48ZM349.72 3.78L346.16 13.02L345.34 13.02L341.77 3.78L342.52 3.78L345.25 10.93L345.74 12.36L346.23 10.93L348.98 3.78L349.72 3.78ZM364.04 13.02L362.88 10.12L358.46 10.12L357.31 13.02L356.57 13.02L360.26 3.78L361.09 3.78L364.78 13.02L364.04 13.02ZM358.72 9.48L362.63 9.48L361.02 5.45L360.68 4.47L360.67 4.47L360.33 5.42L358.72 9.48ZM388.01 8.50L391.80 8.50L391.80 13.02L391.24 13.02L391.22 11.41L391.22 11.41Q390.84 12.25 390.03 12.71L390.03 12.71L390.03 12.71Q389.23 13.16 388.04 13.16L388.04 13.16L388.04 13.16Q386.78 13.16 385.83 12.58L385.83 12.58L385.83 12.58Q384.89 12.00 384.38 10.92L384.38 10.92L384.38 10.92Q383.87 9.84 383.87 8.40L383.87 8.40L383.87 8.40Q383.87 6.96 384.39 5.88L384.39 5.88L384.39 5.88Q384.92 4.80 385.87 4.22L385.87 4.22L385.87 4.22Q386.82 3.64 388.08 3.64L388.08 3.64L388.08 3.64Q389.49 3.64 390.39 4.20L390.39 4.20L390.39 4.20Q391.29 4.76 391.73 5.91L391.73 5.91L391.09 6.24L391.09 6.24Q390.77 5.28 390.00 4.78L390.00 4.78L390.00 4.78Q389.24 4.28 388.08 4.28L388.08 4.28L388.08 4.28Q387.04 4.28 386.26 4.78L386.26 4.78L386.26 4.78Q385.48 5.28 385.04 6.21L385.04 6.21L385.04 6.21Q384.61 7.14 384.61 8.40L384.61 8.40L384.61 8.40Q384.61 10.32 385.52 11.42L385.52 11.42L385.52 11.42Q386.44 12.52 388.07 12.52L388.07 12.52L388.07 12.52Q389.07 12.52 389.77 12.12L389.77 12.12L389.77 12.12Q390.47 11.72 390.81 11.07L390.81 11.07L390.81 11.07Q391.15 10.42 391.15 9.67L391.15 9.67L391.15 9.16L388.01 9.16L388.01 8.50ZM404.95 3.64L404.95 3.64Q406.25 3.64 407.21 4.22L407.21 4.22L407.21 4.22Q408.17 4.80 408.69 5.87L408.69 5.87L408.69 5.87Q409.21 6.94 409.21 8.40L409.21 8.40L409.21 8.40Q409.21 9.86 408.69 10.93L408.69 10.93L408.69 10.93Q408.17 12.00 407.21 12.58L407.21 12.58L407.21 12.58Q406.25 13.16 404.95 13.16L404.95 13.16L404.95 13.16Q403.65 13.16 402.69 12.58L402.69 12.58L402.69 12.58Q401.73 12.00 401.21 10.93L401.21 10.93L401.21 10.93Q400.69 9.86 400.69 8.40L400.69 8.40L400.69 8.40Q400.69 6.94 401.21 5.87L401.21 5.87L401.21 5.87Q401.73 4.80 402.69 4.22L402.69 4.22L402.69 4.22Q403.65 3.64 404.95 3.64L404.95 3.64ZM404.95 4.28L404.95 4.28Q403.87 4.28 403.08 4.78L403.08 4.78L403.08 4.78Q402.29 5.28 401.86 6.21L401.86 6.21L401.86 6.21Q401.44 7.14 401.44 8.40L401.44 8.40L401.44 8.40Q401.44 9.66 401.86 10.59L401.86 10.59L401.86 10.59Q402.29 11.52 403.08 12.02L403.08 12.02L403.08 12.02Q403.87 12.52 404.95 12.52L404.95 12.52L404.95 12.52Q406.03 12.52 406.83 12.02L406.83 12.02L406.83 12.02Q407.62 11.52 408.05 10.59L408.05 10.59L408.05 10.59Q408.48 9.66 408.48 8.40L408.48 8.40L408.48 8.40Q408.48 7.14 408.05 6.21L408.05 6.21L408.05 6.21Q407.62 5.28 406.83 4.78L406.83 4.78L406.83 4.78Q406.03 4.28 404.95 4.28L404.95 4.28ZM422.20 3.64L422.20 3.64Q423.50 3.64 424.46 4.22L424.46 4.22L424.46 4.22Q425.42 4.80 425.94 5.87L425.94 5.87L425.94 5.87Q426.45 6.94 426.45 8.40L426.45 8.40L426.45 8.40Q426.45 9.86 425.94 10.93L425.94 10.93L425.94 10.93Q425.42 12.00 424.46 12.58L424.46 12.58L424.46 12.58Q423.50 13.16 422.20 13.16L422.20 13.16L422.20 13.16Q420.90 13.16 419.94 12.58L419.94 12.58L419.94 12.58Q418.98 12.00 418.46 10.93L418.46 10.93L418.46 10.93Q417.94 9.86 417.94 8.40L417.94 8.40L417.94 8.40Q417.94 6.94 418.46 5.87L418.46 5.87L418.46 5.87Q418.98 4.80 419.94 4.22L419.94 4.22L419.94 4.22Q420.90 3.64 422.20 3.64L422.20 3.64ZM422.20 4.28L422.20 4.28Q421.12 4.28 420.33 4.78L420.33 4.78L420.33 4.78Q419.54 5.28 419.11 6.21L419.11 6.21L419.11 6.21Q418.68 7.14 418.68 8.40L418.68 8.40L418.68 8.40Q418.68 9.66 419.11 10.59L419.11 10.59L419.11 10.59Q419.54 11.52 420.33 12.02L420.33 12.02L420.33 12.02Q421.12 12.52 422.20 12.52L422.20 12.52L422.20 12.52Q423.28 12.52 424.07 12.02L424.07 12.02L424.07 12.02Q424.87 11.52 425.30 10.59L425.30 10.59L425.30 10.59Q425.73 9.66 425.73 8.40L425.73 8.40L425.73 8.40Q425.73 7.14 425.30 6.21L425.30 6.21L425.30 6.21Q424.87 5.28 424.07 4.78L424.07 4.78L424.07 4.78Q423.28 4.28 422.20 4.28L422.20 4.28ZM438.63 3.64L438.63 3.64Q441.24 3.64 442.12 5.68L442.12 5.68L441.52 6.17L441.52 6.17Q441.17 5.18 440.47 4.73L440.47 4.73L440.47 4.73Q439.78 4.28 438.65 4.28L438.65 4.28L438.65 4.28Q437.84 4.28 437.23 4.54L437.23 4.54L437.23 4.54Q436.63 4.79 436.32 5.22L436.32 5.22L436.32 5.22Q436.00 5.66 436.00 6.20L436.00 6.20L436.00 6.20Q436.00 6.73 436.27 7.08L436.27 7.08L436.27 7.08Q436.53 7.43 437.17 7.68L437.17 7.68L437.17 7.68Q437.81 7.92 438.93 8.12L438.93 8.12L438.93 8.12Q440.73 8.43 441.49 9.02L441.49 9.02L441.49 9.02Q442.25 9.60 442.25 10.64L442.25 10.64L442.25 10.64Q442.25 11.38 441.81 11.96L441.81 11.96L441.81 11.96Q441.38 12.53 440.59 12.84L440.59 12.84L440.59 12.84Q439.80 13.16 438.77 13.16L438.77 13.16L438.77 13.16Q437.32 13.16 436.32 12.58L436.32 12.58L436.32 12.58Q435.32 12.00 434.95 10.95L434.95 10.95L435.57 10.47L435.57 10.47Q435.85 11.47 436.69 11.99L436.69 11.99L436.69 11.99Q437.54 12.52 438.79 12.52L438.79 12.52L438.79 12.52Q439.99 12.52 440.75 12.03L440.75 12.03L440.75 12.03Q441.52 11.54 441.52 10.68L441.52 10.68L441.52 10.68Q441.52 9.94 440.89 9.51L440.89 9.51L440.89 9.51Q440.27 9.07 438.73 8.81L438.73 8.81L438.73 8.81Q437.43 8.58 436.67 8.26L436.67 8.26L436.67 8.26Q435.92 7.94 435.59 7.46L435.59 7.46L435.59 7.46Q435.26 6.99 435.26 6.27L435.26 6.27L435.26 6.27Q435.26 5.56 435.67 4.96L435.67 4.96L435.67 4.96Q436.09 4.35 436.85 4.00L436.85 4.00L436.85 4.00Q437.61 3.64 438.63 3.64L438.63 3.64ZM452.14 12.38L457.98 12.38L457.98 13.02L451.44 13.02L451.44 3.78L457.76 3.78L457.76 4.42L452.14 4.42L452.14 7.99L456.58 7.99L456.58 8.65L452.14 8.65L452.14 12.38Z"></path></g></svg>