<svg data-v-fde0c5aa="" xmlns="http://www.w3.org/2000/svg" viewBox="0 0 300 300" class="font"><!----><defs data-v-fde0c5aa=""><!----></defs><rect data-v-fde0c5aa="" fill="transparent" x="0" y="0" width="300px" height="300px" class="logo-background-square"></rect><defs data-v-fde0c5aa=""><linearGradient data-v-fde0c5aa="" gradientTransform="rotate(25)" id="7b8735c6-c052-4a69-be4f-9fcba1b93a2c" x1="0%" y1="0%" x2="100%" y2="0%"><stop data-v-fde0c5aa="" offset="0%" stop-color="#01695A" stop-opacity="1"></stop><stop data-v-fde0c5aa="" offset="100%" stop-color="#2CC26F" stop-opacity="1"></stop></linearGradient></defs><g data-v-fde0c5aa="" id="f1e42713-148d-455f-b78e-22b2359c10b7" fill="url(#7b8735c6-c052-4a69-be4f-9fcba1b93a2c)" transform="matrix(3.2121475011701968,0,0,3.2121475011701968,38.1048328670926,124.19039531823226)"><path d="M0.59 7.91C0.59 11.40 2.95 12.89 5.54 12.89C7.43 12.89 9.44 11.89 9.44 11.58C9.44 11.12 9.45 10.68 9.45 10.33C9.45 9.81 9.46 9.56 9.59 9.56L10.02 9.56C10.16 9.56 10.18 9.39 10.18 9.30C10.18 9.18 10.16 9.06 10.02 9.06C9.80 9.06 9.44 9.10 8.76 9.10C8.32 9.10 7.57 9.07 6.89 9.06C6.75 9.06 6.75 9.24 6.75 9.35C6.75 9.45 6.78 9.56 6.90 9.56L8.12 9.56C8.16 9.56 8.22 9.87 8.22 10.33C8.22 10.82 8.20 11.41 8.18 11.65C8.16 11.76 7.52 12.39 5.94 12.39C3.70 12.39 2.10 10.29 2.10 7.94C2.10 5.42 3.65 3.54 5.66 3.54C7.55 3.54 8.72 4.87 8.72 5.03C8.72 5.15 8.67 6.12 8.67 6.17C8.67 6.31 8.71 6.36 8.97 6.36C9.17 6.36 9.24 6.33 9.24 6.15C9.24 5.43 9.28 3.75 9.28 3.56C9.28 3.36 9.18 3.33 8.97 3.33C8.75 3.33 8.72 3.39 8.72 3.56L8.72 3.91C8.72 3.99 8.68 4.02 8.55 3.92C8.27 3.72 7.28 3.08 5.71 3.08C2.87 3.08 0.59 4.79 0.59 7.91ZM10.85 7.60C10.85 7.66 10.89 7.67 10.96 7.67C11.02 7.67 11.61 7.66 11.65 7.66C11.75 7.66 11.77 8.05 11.77 8.69L11.77 10.89C11.77 11.83 11.98 12.80 13.34 12.80C14.38 12.80 15.57 12.15 15.60 12.15C15.64 12.15 15.61 12.87 15.69 12.87C15.75 12.87 16.88 12.70 17.36 12.63C17.54 12.60 17.54 12.59 17.54 12.38C17.54 12.29 17.54 12.19 17.46 12.19C17.42 12.19 16.87 12.28 16.84 12.28C16.66 12.28 16.62 12.19 16.62 11.49C16.62 10.63 16.63 7.28 16.63 7.28C16.63 7.20 16.65 7.15 16.49 7.15C16.42 7.15 15.58 7.20 14.87 7.22C14.74 7.22 14.70 7.25 14.69 7.35C14.67 7.39 14.66 7.56 14.66 7.60C14.66 7.64 14.71 7.64 14.77 7.64C14.81 7.64 15.36 7.62 15.47 7.62C15.55 7.62 15.58 9.87 15.58 10.18L15.58 11.83C15.58 11.93 14.83 12.01 14.35 12.01C13.52 12.01 12.84 11.86 12.84 11.12L12.84 7.31C12.84 7.22 12.84 7.18 12.75 7.18C12.68 7.18 11.47 7.22 11.16 7.24C10.99 7.25 10.95 7.24 10.91 7.36C10.88 7.43 10.85 7.55 10.85 7.60ZM18.28 11.61C18.28 12.35 18.82 12.84 19.70 12.84C20.31 12.84 21.03 12.45 21.43 12.19C21.53 12.14 21.55 12.11 21.59 12.24C21.67 12.46 21.73 12.88 22.18 12.88C22.27 12.88 22.51 12.74 22.76 12.56C23.10 12.31 23.48 12.04 23.48 12.01C23.48 11.93 23.32 11.73 23.25 11.73C23.23 11.73 22.81 12.08 22.69 12.08C22.65 12.08 22.44 12.01 22.44 11.70C22.44 11.40 22.53 9.56 22.53 8.85C22.53 7.73 22.09 6.97 20.65 6.97C19.73 6.97 18.48 7.67 18.48 8.85C18.48 9.00 18.54 9.11 18.61 9.11C18.68 9.11 19.18 8.86 19.42 8.69C19.50 8.64 19.52 8.50 19.52 8.41C19.52 7.84 19.54 7.63 19.92 7.48C20.05 7.42 20.22 7.39 20.36 7.39C21.52 7.39 21.53 8.32 21.53 9.31C21.53 9.44 21.53 9.48 21.46 9.49C20.08 9.73 18.28 10.32 18.28 11.61ZM19.35 11.21C19.35 10.58 19.98 10.22 20.64 10.01C21.03 9.88 21.45 9.80 21.49 9.80C21.52 9.80 21.53 9.81 21.53 9.91L21.53 11.75C21.53 11.84 20.75 12.14 20.22 12.14C19.66 12.14 19.35 11.65 19.35 11.21ZM23.73 7.45C23.73 7.59 23.74 7.67 23.91 7.67L24.16 7.67C24.29 7.67 24.28 7.69 24.35 7.85C24.91 9.31 25.72 11.56 25.87 12.04C25.96 12.31 26.10 12.99 26.33 12.99C26.39 12.99 26.46 12.95 26.52 12.88C26.88 12.33 26.99 12.36 27.22 11.89C27.85 10.57 28.67 8.37 28.98 7.81C29.05 7.70 29.05 7.67 29.13 7.67L29.40 7.67C29.54 7.67 29.57 7.59 29.57 7.45C29.57 7.29 29.55 7.21 29.41 7.21C29.20 7.21 28.97 7.24 28.66 7.24C28.38 7.24 27.93 7.21 27.82 7.21C27.62 7.21 27.62 7.31 27.62 7.45C27.62 7.59 27.62 7.67 27.80 7.67L28.21 7.67C28.27 7.67 28.31 7.71 28.31 7.85C28.31 8.29 27.33 10.64 26.99 11.44C26.95 11.55 26.92 11.59 26.89 11.59C26.87 11.59 26.84 11.52 26.78 11.41C26.38 10.50 25.49 7.88 25.47 7.74C25.47 7.70 25.52 7.67 25.68 7.67L26.17 7.67C26.29 7.67 26.31 7.59 26.31 7.45C26.31 7.29 26.31 7.21 26.15 7.21C25.90 7.21 25.24 7.24 24.89 7.24C24.49 7.24 24.18 7.21 23.91 7.21C23.74 7.21 23.73 7.32 23.73 7.45ZM30.18 11.61C30.18 12.35 30.72 12.84 31.60 12.84C32.21 12.84 32.93 12.45 33.33 12.19C33.43 12.14 33.45 12.11 33.49 12.24C33.57 12.46 33.63 12.88 34.08 12.88C34.17 12.88 34.41 12.74 34.66 12.56C35 12.31 35.38 12.04 35.38 12.01C35.38 11.93 35.22 11.73 35.15 11.73C35.13 11.73 34.71 12.08 34.59 12.08C34.55 12.08 34.34 12.01 34.34 11.70C34.34 11.40 34.43 9.56 34.43 8.85C34.43 7.73 33.99 6.97 32.55 6.97C31.63 6.97 30.38 7.67 30.38 8.85C30.38 9.00 30.44 9.11 30.51 9.11C30.58 9.11 31.08 8.86 31.32 8.69C31.40 8.64 31.42 8.50 31.42 8.41C31.42 7.84 31.44 7.63 31.82 7.48C31.95 7.42 32.12 7.39 32.26 7.39C33.42 7.39 33.43 8.32 33.43 9.31C33.43 9.44 33.43 9.48 33.36 9.49C31.98 9.73 30.18 10.32 30.18 11.61ZM31.25 11.21C31.25 10.58 31.88 10.22 32.54 10.01C32.93 9.88 33.35 9.80 33.39 9.80C33.42 9.80 33.43 9.81 33.43 9.91L33.43 11.75C33.43 11.84 32.65 12.14 32.12 12.14C31.56 12.14 31.25 11.65 31.25 11.21ZM36.19 7.91C36.19 11.40 38.56 12.89 41.15 12.89C43.04 12.89 45.04 11.89 45.04 11.58C45.04 11.12 45.05 10.68 45.05 10.33C45.05 9.81 45.07 9.56 45.19 9.56L45.63 9.56C45.77 9.56 45.78 9.39 45.78 9.30C45.78 9.18 45.77 9.06 45.63 9.06C45.40 9.06 45.04 9.10 44.37 9.10C43.92 9.10 43.18 9.07 42.49 9.06C42.35 9.06 42.35 9.24 42.35 9.35C42.35 9.45 42.38 9.56 42.50 9.56L43.72 9.56C43.76 9.56 43.82 9.87 43.82 10.33C43.82 10.82 43.81 11.41 43.78 11.65C43.76 11.76 43.12 12.39 41.54 12.39C39.30 12.39 37.70 10.29 37.70 7.94C37.70 5.42 39.26 3.54 41.26 3.54C43.15 3.54 44.32 4.87 44.32 5.03C44.32 5.15 44.27 6.12 44.27 6.17C44.27 6.31 44.31 6.36 44.58 6.36C44.77 6.36 44.84 6.33 44.84 6.15C44.84 5.43 44.88 3.75 44.88 3.56C44.88 3.36 44.79 3.33 44.58 3.33C44.35 3.33 44.32 3.39 44.32 3.56L44.32 3.91C44.32 3.99 44.28 4.02 44.16 3.92C43.88 3.72 42.88 3.08 41.31 3.08C38.47 3.08 36.19 4.79 36.19 7.91ZM46.68 10.04C46.68 11.58 47.84 12.85 49.36 12.85C51.13 12.85 52.16 11.58 52.16 9.84C52.16 8.29 51.14 7.01 49.59 7.01C47.84 7.01 46.68 8.37 46.68 10.04ZM47.75 10.23C47.75 8.69 48.15 7.46 49.42 7.46C50.55 7.46 51.07 8.74 51.07 9.74C51.07 10.92 50.83 12.40 49.36 12.40C48.31 12.40 47.75 11.27 47.75 10.23ZM52.92 10.04C52.92 11.58 54.08 12.85 55.61 12.85C57.37 12.85 58.41 11.58 58.41 9.84C58.41 8.29 57.39 7.01 55.83 7.01C54.08 7.01 52.92 8.37 52.92 10.04ZM54.00 10.23C54.00 8.69 54.39 7.46 55.66 7.46C56.80 7.46 57.32 8.74 57.32 9.74C57.32 10.92 57.08 12.40 55.61 12.40C54.56 12.40 54.00 11.27 54.00 10.23ZM59.23 11.90C59.23 12.39 60.19 12.81 61.04 12.81C62.09 12.81 63.06 12.17 63.06 11.12C63.06 10.25 62.09 9.83 61.29 9.45C60.69 9.16 60.17 8.95 60.17 8.37C60.17 7.67 60.70 7.43 61.15 7.43C62.03 7.43 61.85 8.34 62.20 8.34C62.38 8.34 62.83 8.23 62.83 8.06C62.83 7.67 62.41 7.06 61.33 7.06C60.33 7.06 59.28 7.71 59.28 8.68C59.28 9.62 60.17 10.00 60.93 10.33C61.59 10.61 62.15 10.91 62.15 11.54C62.15 12.14 61.73 12.40 61.26 12.40C60.65 12.40 60.28 12.08 59.99 11.72C59.85 11.54 59.79 11.31 59.70 11.31C59.60 11.31 59.23 11.62 59.23 11.90ZM63.90 10.01C63.90 11.68 64.86 12.85 66.63 12.85C68.08 12.85 69.08 11.56 69.08 11.48C69.08 11.45 68.84 11.24 68.80 11.24C68.71 11.24 68.12 12.15 66.95 12.15C65.94 12.15 64.95 11.33 64.95 9.88C64.95 9.72 64.96 9.49 64.99 9.42C65.20 9.42 67.96 9.49 68.11 9.49C68.25 9.49 68.91 9.46 68.91 9.28C68.91 8.09 68.19 7.01 66.78 7.01C65.07 7.01 63.90 8.33 63.90 10.01ZM65.02 9.03C65.07 8.34 65.72 7.41 66.61 7.41C67.05 7.41 67.86 7.70 67.86 8.99C67.86 9.04 67.69 9.03 67.34 9.04C66.64 9.07 65.21 9.10 65.14 9.10C65.03 9.10 65.02 9.09 65.02 9.03Z"></path></g><!----><!----></svg>